<?xml version="1.0" encoding="iso-8859-1"?>
<!-- Generator: Adobe Illustrator 16.0.0, SVG Export Plug-In . SVG Version: 6.00 Build 0)  -->
<!DOCTYPE svg PUBLIC "-//W3C//DTD SVG 1.1//EN" "http://www.w3.org/Graphics/SVG/1.1/DTD/svg11.dtd">
<svg version="1.1" xmlns="http://www.w3.org/2000/svg" xmlns:xlink="http://www.w3.org/1999/xlink" x="0px" y="0px" width="163px"
	 height="236px" viewBox="0 0 163 236" style="enable-background:new 0 0 163 236;" xml:space="preserve">
<g id="Layer_2">
	
		<line style="fill:#FFFFFF;stroke:#4F4F4F;stroke-width:0.8289;stroke-miterlimit:10;" x1="81.07" y1="223.486" x2="66.449" y2="173.148"/>
	
		<line style="fill:none;stroke:#4F4F4F;stroke-width:0.8289;stroke-miterlimit:10;" x1="81.07" y1="223.486" x2="92.733" y2="177.82"/>
	
		<line style="fill:none;stroke:#4F4F4F;stroke-width:0.8289;stroke-miterlimit:10;" x1="81.07" y1="223.486" x2="81.07" y2="174.958"/>
</g>
<g id="Layer_1">
	<g id="XMLID_1_">
		<g>
			<path style="fill:#64B850;" d="M92.732,177.82H68.637c0,0,0-0.008-0.008-0.017c-0.68-1.393-56.893-117.135-23.564-161.612v-0.008
				C55.757,10.332,68.024,7,81.07,7c12.806,0,24.866,3.208,35.409,8.86l-0.174,0.332C149.833,60.942,92.732,177.82,92.732,177.82z"
				/>
			<path style="fill:#EDDD83;" d="M116.479,15.86c23.606,12.648,39.661,37.556,39.661,66.209c0,29.019-62.637,95.75-62.637,95.75
				h-0.771c0,0,57.101-116.878,23.573-161.628L116.479,15.86z"/>
			<polygon style="fill:#6D5A39;" points="95.691,216.603 90.096,230.37 72.044,230.37 66.449,216.603 			"/>
			<path style="fill:#F35E50;" d="M45.064,16.192C11.736,60.669,67.949,176.411,68.629,177.804C67.468,176.568,6,110.815,6,82.07
				c0-28.413,15.782-53.138,39.064-65.886V16.192z"/>
		</g>
		<g>
		</g>
	</g>
</g>
</svg>
