<?xml version="1.0" encoding="iso-8859-1"?>
<!-- Generator: Adobe Illustrator 16.0.0, SVG Export Plug-In . SVG Version: 6.00 Build 0)  -->
<!DOCTYPE svg PUBLIC "-//W3C//DTD SVG 1.1//EN" "http://www.w3.org/Graphics/SVG/1.1/DTD/svg11.dtd">
<svg version="1.1" id="Layer_1" xmlns="http://www.w3.org/2000/svg" xmlns:xlink="http://www.w3.org/1999/xlink" x="0px" y="0px"
	 width="241.904px" height="149.833px" viewBox="0 0 241.904 149.833" style="enable-background:new 0 0 241.904 149.833;"
	 xml:space="preserve">
<g id="Layer_2">
</g>
<path style="fill:#919191;" d="M160.765,50.806c-11.755-33.958,1.143-27.688,1.143-27.688V10.998
	c-26.799-1.473-15.827,27.643-10.681,38.779c-6.094-0.517-12.367-0.8-18.789-0.8c-35.065,0-66,8.062-84.444,20.348l0.018-0.021
	c0,0-39.661-24.37-38.449-10.431c1.046,12.042,15.597,27.69,19.542,31.73c-3.945,4.04-18.496,19.689-19.542,31.73
	c-0.873,10.037,19.445,0.212,30.891-6.077c16.633,15.544,51.568,26.254,91.985,26.254c56.525,0,102.346-20.938,102.346-46.768
	C234.783,74.409,203.504,56.423,160.765,50.806z"/>
<g>
	<circle style="fill:#AAAAAA;" cx="82.078" cy="95.746" r="20.89"/>
	<ellipse style="fill:#92D4E8;" cx="82.078" cy="95.744" rx="12.773" ry="12.38"/>
</g>
<g>
	<circle style="fill:#AAAAAA;" cx="132.437" cy="95.746" r="20.889"/>
	<ellipse style="fill:#92D4E8;" cx="132.437" cy="95.744" rx="12.772" ry="12.38"/>
</g>
<g>
	<circle style="fill:#AAAAAA;" cx="182.797" cy="95.746" r="20.889"/>
	<ellipse style="fill:#92D4E8;" cx="182.797" cy="95.744" rx="12.772" ry="12.38"/>
</g>
</svg>
